<svg width="1920" height="1080" viewBox="0 0 1920 1080" fill="none" xmlns="http://www.w3.org/2000/svg">
<rect width="1920" height="1080" fill="black"/>
<path fill-rule="evenodd" clip-rule="evenodd" d="M939.185 252.101C946.194 251.373 953.305 251 960.5 251C967.695 251 974.806 251.373 981.815 252.101C988.407 252.786 993.196 258.685 992.511 265.277C991.826 271.869 985.927 276.658 979.335 275.973C973.148 275.33 966.865 275 960.5 275C954.135 275 947.852 275.33 941.665 275.973C935.073 276.658 929.174 271.869 928.489 265.277C927.804 258.685 932.593 252.786 939.185 252.101ZM1027.65 274.669C1030.35 268.616 1037.45 265.898 1043.5 268.597C1056.6 274.437 1068.96 281.614 1080.42 289.954C1085.78 293.854 1086.96 301.359 1083.06 306.718C1079.16 312.076 1071.66 313.259 1066.3 309.359C1056.18 301.997 1045.28 295.665 1033.73 290.516C1027.67 287.817 1024.96 280.722 1027.65 274.669ZM893.345 274.669C896.044 280.722 893.325 287.817 887.272 290.516C875.725 295.665 864.816 301.997 854.7 309.359C849.342 313.259 841.836 312.076 837.936 306.718C834.037 301.359 835.219 293.854 840.578 289.954C852.037 281.614 864.402 274.437 877.498 268.597C883.551 265.898 890.646 268.616 893.345 274.669ZM1108.78 332.436C1114.14 328.537 1121.65 329.719 1125.55 335.078C1133.89 346.537 1141.06 358.902 1146.9 371.998C1149.6 378.051 1146.88 385.146 1140.83 387.845C1134.78 390.544 1127.68 387.825 1124.98 381.772C1119.83 370.225 1113.5 359.316 1106.14 349.2C1102.24 343.842 1103.42 336.336 1108.78 332.436ZM812.218 332.436C817.576 336.336 818.759 343.842 814.859 349.2C807.497 359.316 801.165 370.225 796.016 381.772C793.317 387.825 786.222 390.544 780.169 387.845C774.116 385.146 771.398 378.051 774.097 371.998C779.937 358.902 787.114 346.537 795.454 335.078C799.354 329.719 806.859 328.537 812.218 332.436ZM1150.22 422.989C1156.81 422.304 1162.71 427.093 1163.4 433.685C1164.13 440.694 1164.5 447.805 1164.5 455C1164.5 462.195 1164.13 469.306 1163.4 476.315C1162.71 482.907 1156.81 487.696 1150.22 487.011C1143.63 486.326 1138.84 480.427 1139.53 473.835C1140.17 467.648 1140.5 461.365 1140.5 455C1140.5 448.635 1140.17 442.352 1139.53 436.165C1138.84 429.573 1143.63 423.674 1150.22 422.989ZM770.777 422.989C777.369 423.674 782.158 429.573 781.473 436.165C780.83 442.352 780.5 448.635 780.5 455C780.5 461.365 780.83 467.648 781.473 473.835C782.158 480.427 777.369 486.326 770.777 487.011C764.185 487.696 758.286 482.907 757.601 476.315C756.873 469.306 756.5 462.195 756.5 455C756.5 447.805 756.873 440.694 757.601 433.685C758.286 427.093 764.185 422.304 770.777 422.989ZM1140.83 522.155C1146.88 524.854 1149.6 531.949 1146.9 538.002C1141.06 551.098 1133.89 563.463 1125.55 574.922C1121.65 580.281 1114.14 581.463 1108.78 577.564C1103.42 573.664 1102.24 566.158 1106.14 560.8C1113.5 550.684 1119.83 539.775 1124.98 528.228C1127.68 522.175 1134.78 519.456 1140.83 522.155ZM780.169 522.155C786.222 519.456 793.317 522.175 796.016 528.228C801.165 539.775 807.497 550.684 814.859 560.8C818.759 566.158 817.576 573.664 812.218 577.564C806.859 581.464 799.354 580.281 795.454 574.922C787.114 563.463 779.937 551.098 774.097 538.002C771.398 531.949 774.116 524.854 780.169 522.155ZM837.936 603.282C841.836 597.924 849.342 596.741 854.7 600.641C864.816 608.003 875.725 614.335 887.272 619.484C893.325 622.183 896.044 629.278 893.345 635.331C890.646 641.384 883.551 644.102 877.498 641.403C864.402 635.563 852.037 628.386 840.578 620.046C835.219 616.146 834.037 608.641 837.936 603.282ZM1083.06 603.282C1086.96 608.641 1085.78 616.146 1080.42 620.046C1068.96 628.386 1056.6 635.563 1043.5 641.403C1037.45 644.102 1030.35 641.384 1027.65 635.331C1024.96 629.278 1027.67 622.183 1033.73 619.484C1045.28 614.335 1056.18 608.003 1066.3 600.641C1071.66 596.741 1079.16 597.924 1083.06 603.282ZM928.489 644.723C929.174 638.131 935.073 633.342 941.665 634.027C947.852 634.67 954.135 635 960.5 635C966.865 635 973.148 634.67 979.335 634.027C985.927 633.342 991.826 638.131 992.511 644.723C993.196 651.315 988.407 657.214 981.815 657.899C974.806 658.627 967.695 659 960.5 659C953.305 659 946.194 658.627 939.185 657.899C932.593 657.214 927.804 651.315 928.489 644.723Z" fill="#FFBB33"/>
<rect width="96" height="96" transform="translate(816.5 575)" fill="black"/>
<rect width="96" height="96" transform="translate(1008.5 575)" fill="black"/>
<rect width="144" height="48" transform="translate(888.5 623)" fill="black"/>
<path d="M1008.5 527H912.5C899.245 527 888.5 537.745 888.5 551V610.156C888.5 618.18 892.51 625.674 899.187 630.125L947.187 662.125C955.249 667.499 965.751 667.499 973.813 662.125L1021.81 630.125C1028.49 625.674 1032.5 618.18 1032.5 610.156V551C1032.5 537.745 1021.75 527 1008.5 527Z" fill="#8C8C8C"/>
<circle cx="960.5" cy="455" r="144" fill="#FFBB33"/>
<path fill-rule="evenodd" clip-rule="evenodd" d="M891.969 424.765C897.528 421.059 904.4 419 912.5 419C928.107 419 942.559 426.617 952.156 433.015C955.312 435.119 958.125 437.216 960.5 439.1C962.875 437.216 965.688 435.119 968.844 433.015C978.441 426.617 992.893 419 1008.5 419C1016.6 419 1023.47 421.059 1029.03 424.765C1034.52 428.421 1038.02 433.21 1040.23 437.633C1042.42 442.01 1043.46 446.241 1043.96 449.277C1044.22 450.824 1044.35 452.139 1044.42 453.114C1044.46 453.603 1044.48 454.013 1044.49 454.331L1044.5 454.738L1044.5 454.887L1044.5 454.948L1044.5 454.975L1044.5 454.988C1044.5 454.994 1044.5 455 1032.5 455C1044.5 455 1044.5 455.006 1044.5 455.012L1044.5 455.025L1044.5 455.052L1044.5 455.113L1044.5 455.262L1044.49 455.669C1044.48 455.987 1044.46 456.397 1044.42 456.886C1044.35 457.861 1044.22 459.176 1043.96 460.723C1043.46 463.759 1042.42 467.99 1040.23 472.367C1038.02 476.79 1034.52 481.579 1029.03 485.235C1023.47 488.941 1016.6 491 1008.5 491C992.893 491 978.441 483.383 968.844 476.985C965.688 474.881 962.875 472.784 960.5 470.9C958.125 472.784 955.312 474.881 952.156 476.985C942.559 483.383 928.107 491 912.5 491C904.4 491 897.528 488.941 891.969 485.235C886.485 481.579 882.979 476.79 880.767 472.367C878.579 467.99 877.544 463.759 877.038 460.723C876.781 459.176 876.647 457.861 876.577 456.886C876.542 456.397 876.523 455.987 876.513 455.669L876.502 455.262L876.5 455.113L876.5 455.052L876.5 455.025L876.5 455.012C876.5 455.006 876.5 455 888.5 455C876.5 455 876.5 454.994 876.5 454.988L876.5 454.975L876.5 454.948L876.5 454.887L876.502 454.738L876.513 454.331C876.523 454.013 876.542 453.603 876.577 453.114C876.647 452.139 876.781 450.824 877.038 449.277C877.544 446.241 878.579 442.01 880.767 437.633C882.979 433.21 886.485 428.421 891.969 424.765ZM900.505 455C900.508 455.048 900.511 455.107 900.516 455.176C900.54 455.514 900.594 456.074 900.712 456.777C900.956 458.241 901.421 460.01 902.233 461.633C903.021 463.21 904.015 464.421 905.281 465.265C906.472 466.059 908.6 467 912.5 467C920.893 467 930.441 462.617 938.844 457.015C939.855 456.341 940.826 455.666 941.749 455C940.826 454.334 939.855 453.659 938.844 452.985C930.441 447.383 920.893 443 912.5 443C908.6 443 906.472 443.941 905.281 444.735C904.015 445.579 903.021 446.79 902.233 448.367C901.421 449.99 900.956 451.759 900.712 453.223C900.594 453.926 900.54 454.486 900.516 454.824C900.511 454.893 900.508 454.952 900.505 455ZM979.251 455C980.174 455.666 981.145 456.341 982.156 457.015C990.559 462.617 1000.11 467 1008.5 467C1012.4 467 1014.53 466.059 1015.72 465.265C1016.98 464.421 1017.98 463.21 1018.77 461.633C1019.58 460.01 1020.04 458.241 1020.29 456.777C1020.41 456.074 1020.46 455.514 1020.48 455.176C1020.49 455.107 1020.49 455.048 1020.49 455C1020.49 454.952 1020.49 454.893 1020.48 454.824C1020.46 454.486 1020.41 453.926 1020.29 453.223C1020.04 451.759 1019.58 449.99 1018.77 448.367C1017.98 446.79 1016.98 445.579 1015.72 444.735C1014.53 443.941 1012.4 443 1008.5 443C1000.11 443 990.559 447.383 982.156 452.985C981.145 453.659 980.174 454.334 979.251 455Z" fill="white"/>
<path d="M452.038 801V730.92H492.358V738.792H460.582V760.488H488.998V768.264H460.582V793.128H492.358V801H452.038ZM508.832 801V748.2H517.472V758.28H519.296L517.472 760.296C517.472 756.136 518.72 752.936 521.216 750.696C523.712 748.392 527.168 747.24 531.584 747.24C536.896 747.24 541.12 748.872 544.256 752.136C547.392 755.4 548.96 759.848 548.96 765.48V801H540.32V766.44C540.32 762.664 539.296 759.784 537.248 757.8C535.264 755.752 532.544 754.728 529.088 754.728C525.504 754.728 522.656 755.816 520.544 757.992C518.496 760.168 517.472 763.304 517.472 767.4V801H508.832ZM583.291 801.96C578.043 801.96 573.787 800.2 570.523 796.68C567.323 793.16 565.723 788.392 565.723 782.376V766.92C565.723 760.84 567.323 756.04 570.523 752.52C573.723 749 577.979 747.24 583.291 747.24C587.643 747.24 591.131 748.424 593.755 750.792C596.379 753.16 597.691 756.328 597.691 760.296L595.963 758.28H597.883L597.691 746.28V730.92H606.331V801H597.691V790.92H595.963L597.691 788.904C597.691 792.936 596.379 796.136 593.755 798.504C591.131 800.808 587.643 801.96 583.291 801.96ZM586.171 794.472C589.755 794.472 592.571 793.352 594.619 791.112C596.667 788.872 597.691 785.768 597.691 781.8V767.4C597.691 763.432 596.667 760.328 594.619 758.088C592.571 755.848 589.755 754.728 586.171 754.728C582.523 754.728 579.643 755.816 577.531 757.992C575.419 760.168 574.363 763.304 574.363 767.4V781.8C574.363 785.896 575.419 789.032 577.531 791.208C579.643 793.384 582.523 794.472 586.171 794.472ZM651.125 801C648.053 801 645.365 800.392 643.061 799.176C640.757 797.96 638.965 796.232 637.685 793.992C636.405 791.752 635.765 789.128 635.765 786.12V738.792H618.005V730.92H644.405V786.12C644.405 788.296 645.013 790.024 646.229 791.304C647.445 792.52 649.077 793.128 651.125 793.128H667.925V801H651.125ZM701.488 801.96C697.328 801.96 693.68 801.128 690.544 799.464C687.472 797.8 685.072 795.464 683.344 792.456C681.68 789.384 680.848 785.832 680.848 781.8V767.4C680.848 763.304 681.68 759.752 683.344 756.744C685.072 753.736 687.472 751.4 690.544 749.736C693.68 748.072 697.328 747.24 701.488 747.24C705.648 747.24 709.264 748.072 712.336 749.736C715.472 751.4 717.872 753.736 719.536 756.744C721.264 759.752 722.128 763.304 722.128 767.4V776.712H689.296V781.8C689.296 785.96 690.352 789.16 692.464 791.4C694.576 793.576 697.584 794.664 701.488 794.664C704.816 794.664 707.504 794.088 709.552 792.936C711.6 791.72 712.848 789.928 713.296 787.56H721.936C721.36 791.976 719.184 795.496 715.408 798.12C711.696 800.68 707.056 801.96 701.488 801.96ZM713.68 770.952V767.4C713.68 763.24 712.624 760.04 710.512 757.8C708.464 755.56 705.456 754.44 701.488 754.44C697.584 754.44 694.576 755.56 692.464 757.8C690.352 760.04 689.296 763.24 689.296 767.4V770.184H714.352L713.68 770.952ZM757.418 801.768C753.834 801.768 750.698 801.224 748.01 800.136C745.386 798.984 743.274 797.384 741.674 795.336C740.138 793.288 739.21 790.856 738.89 788.04H747.53C747.914 789.896 748.938 791.368 750.602 792.456C752.33 793.544 754.602 794.088 757.418 794.088H761.45C764.842 794.088 767.37 793.416 769.034 792.072C770.698 790.664 771.53 788.808 771.53 786.504C771.53 784.264 770.762 782.504 769.226 781.224C767.754 779.88 765.546 778.984 762.602 778.536L755.498 777.384C750.314 776.488 746.442 774.888 743.882 772.584C741.386 770.216 740.138 766.792 740.138 762.312C740.138 757.576 741.642 753.928 744.65 751.368C747.658 748.744 752.17 747.432 758.186 747.432H761.834C766.89 747.432 770.954 748.616 774.026 750.984C777.098 753.352 778.954 756.552 779.594 760.584H770.954C770.57 758.92 769.61 757.608 768.074 756.648C766.538 755.624 764.458 755.112 761.834 755.112H758.186C754.922 755.112 752.522 755.72 750.986 756.936C749.514 758.152 748.778 759.976 748.778 762.408C748.778 764.584 749.418 766.184 750.698 767.208C751.978 768.232 753.994 768.968 756.746 769.416L763.85 770.568C769.546 771.464 773.674 773.128 776.234 775.56C778.858 777.992 780.17 781.512 780.17 786.12C780.17 790.984 778.602 794.824 775.466 797.64C772.394 800.392 767.722 801.768 761.45 801.768H757.418ZM814.981 801.768C811.397 801.768 808.261 801.224 805.573 800.136C802.949 798.984 800.837 797.384 799.237 795.336C797.701 793.288 796.773 790.856 796.453 788.04H805.093C805.477 789.896 806.501 791.368 808.165 792.456C809.893 793.544 812.165 794.088 814.981 794.088H819.013C822.405 794.088 824.933 793.416 826.597 792.072C828.261 790.664 829.093 788.808 829.093 786.504C829.093 784.264 828.325 782.504 826.789 781.224C825.317 779.88 823.109 778.984 820.165 778.536L813.061 777.384C807.877 776.488 804.005 774.888 801.445 772.584C798.949 770.216 797.701 766.792 797.701 762.312C797.701 757.576 799.205 753.928 802.213 751.368C805.221 748.744 809.733 747.432 815.749 747.432H819.397C824.453 747.432 828.517 748.616 831.589 750.984C834.661 753.352 836.517 756.552 837.156 760.584H828.517C828.133 758.92 827.173 757.608 825.637 756.648C824.101 755.624 822.021 755.112 819.397 755.112H815.749C812.485 755.112 810.085 755.72 808.549 756.936C807.077 758.152 806.341 759.976 806.341 762.408C806.341 764.584 806.981 766.184 808.261 767.208C809.541 768.232 811.557 768.968 814.309 769.416L821.413 770.568C827.109 771.464 831.237 773.128 833.797 775.56C836.421 777.992 837.733 781.512 837.733 786.12C837.733 790.984 836.165 794.824 833.029 797.64C829.957 800.392 825.285 801.768 819.013 801.768H814.981ZM932.122 801.96C927.898 801.96 924.218 801.16 921.082 799.56C918.01 797.96 915.61 795.656 913.882 792.648C912.218 789.576 911.386 785.96 911.386 781.8V750.12C911.386 745.896 912.218 742.28 913.882 739.272C915.61 736.264 918.01 733.96 921.082 732.36C924.218 730.76 927.898 729.96 932.122 729.96C936.346 729.96 939.994 730.792 943.066 732.456C946.138 734.056 948.506 736.36 950.17 739.368C951.834 742.376 952.666 745.96 952.666 750.12H944.026C944.026 746.152 942.97 743.112 940.858 741C938.81 738.824 935.898 737.736 932.122 737.736C928.346 737.736 925.37 738.792 923.194 740.904C921.082 743.016 920.026 746.056 920.026 750.024V781.8C920.026 785.768 921.082 788.84 923.194 791.016C925.37 793.128 928.346 794.184 932.122 794.184C935.898 794.184 938.81 793.128 940.858 791.016C942.97 788.84 944.026 785.768 944.026 781.8H952.666C952.666 785.896 951.834 789.48 950.17 792.552C948.506 795.56 946.138 797.896 943.066 799.56C939.994 801.16 936.346 801.96 932.122 801.96ZM971.156 801V748.2H979.604V758.28H981.62L978.836 764.52C978.836 758.824 980.052 754.536 982.484 751.656C984.98 748.712 988.66 747.24 993.524 747.24C999.092 747.24 1003.51 749 1006.77 752.52C1010.1 755.976 1011.76 760.68 1011.76 766.632V769.8H1003.12V767.4C1003.12 763.24 1002.1 760.072 1000.05 757.896C998.068 755.656 995.22 754.536 991.508 754.536C987.86 754.536 984.98 755.656 982.868 757.896C980.82 760.136 979.796 763.304 979.796 767.4V801H971.156ZM1046.86 801.96C1042.7 801.96 1039.05 801.128 1035.92 799.464C1032.85 797.8 1030.45 795.464 1028.72 792.456C1027.05 789.384 1026.22 785.832 1026.22 781.8V767.4C1026.22 763.304 1027.05 759.752 1028.72 756.744C1030.45 753.736 1032.85 751.4 1035.92 749.736C1039.05 748.072 1042.7 747.24 1046.86 747.24C1051.02 747.24 1054.64 748.072 1057.71 749.736C1060.85 751.4 1063.25 753.736 1064.91 756.744C1066.64 759.752 1067.5 763.304 1067.5 767.4V776.712H1034.67V781.8C1034.67 785.96 1035.73 789.16 1037.84 791.4C1039.95 793.576 1042.96 794.664 1046.86 794.664C1050.19 794.664 1052.88 794.088 1054.93 792.936C1056.97 791.72 1058.22 789.928 1058.67 787.56H1067.31C1066.73 791.976 1064.56 795.496 1060.78 798.12C1057.07 800.68 1052.43 801.96 1046.86 801.96ZM1059.05 770.952V767.4C1059.05 763.24 1058 760.04 1055.89 757.8C1053.84 755.56 1050.83 754.44 1046.86 754.44C1042.96 754.44 1039.95 755.56 1037.84 757.8C1035.73 760.04 1034.67 763.24 1034.67 767.4V770.184H1059.73L1059.05 770.952ZM1099.82 801.96C1094.25 801.96 1089.87 800.552 1086.67 797.736C1083.47 794.856 1081.87 790.984 1081.87 786.12C1081.87 781.192 1083.47 777.32 1086.67 774.504C1089.87 771.688 1094.19 770.28 1099.62 770.28H1115.95V765C1115.95 761.736 1114.95 759.24 1112.97 757.512C1111.05 755.72 1108.3 754.824 1104.71 754.824C1101.58 754.824 1098.95 755.496 1096.84 756.84C1094.73 758.12 1093.51 759.88 1093.19 762.12H1084.55C1085.13 757.576 1087.27 753.96 1090.99 751.272C1094.7 748.584 1099.34 747.24 1104.91 747.24C1110.99 747.24 1115.79 748.808 1119.31 751.944C1122.83 755.08 1124.59 759.336 1124.59 764.712V801H1116.14V790.92H1114.7L1116.14 789.48C1116.14 793.32 1114.63 796.36 1111.63 798.6C1108.68 800.84 1104.75 801.96 1099.82 801.96ZM1101.93 795.144C1106.03 795.144 1109.39 794.12 1112.01 792.072C1114.63 790.024 1115.95 787.4 1115.95 784.2V776.712H1099.82C1096.94 776.712 1094.67 777.512 1093 779.112C1091.34 780.712 1090.51 782.888 1090.51 785.64C1090.51 788.584 1091.5 790.92 1093.48 792.648C1095.53 794.312 1098.35 795.144 1101.93 795.144ZM1167.75 801C1163.2 801 1159.65 799.784 1157.09 797.352C1154.6 794.92 1153.35 791.496 1153.35 787.08V756.072H1138.47V748.2H1153.35V733.32H1161.99V748.2H1183.11V756.072H1161.99V787.08C1161.99 791.112 1163.91 793.128 1167.75 793.128H1182.15V801H1167.75ZM1198.91 801V793.128H1217.63V756.072H1201.31V748.2H1226.27V793.128H1244.03V801H1198.91ZM1220.99 738.696C1218.88 738.696 1217.21 738.152 1216 737.064C1214.78 735.976 1214.17 734.504 1214.17 732.648C1214.17 730.728 1214.78 729.224 1216 728.136C1217.21 726.984 1218.88 726.408 1220.99 726.408C1223.1 726.408 1224.77 726.984 1225.98 728.136C1227.2 729.224 1227.81 730.728 1227.81 732.648C1227.81 734.504 1227.2 735.976 1225.98 737.064C1224.77 738.152 1223.1 738.696 1220.99 738.696ZM1271.26 801L1253.59 748.2H1262.42L1274.14 783.72C1274.84 785.832 1275.48 787.88 1276.06 789.864C1276.63 791.784 1277.05 793.288 1277.3 794.376C1277.62 793.288 1278.07 791.784 1278.65 789.864C1279.22 787.88 1279.83 785.832 1280.47 783.72L1291.9 748.2H1300.63L1282.97 801H1271.26ZM1314.04 801V793.128H1332.76V756.072H1316.44V748.2H1341.4V793.128H1359.16V801H1314.04ZM1336.12 738.696C1334 738.696 1332.34 738.152 1331.12 737.064C1329.91 735.976 1329.3 734.504 1329.3 732.648C1329.3 730.728 1329.91 729.224 1331.12 728.136C1332.34 726.984 1334 726.408 1336.12 726.408C1338.23 726.408 1339.89 726.984 1341.11 728.136C1342.32 729.224 1342.93 730.728 1342.93 732.648C1342.93 734.504 1342.32 735.976 1341.11 737.064C1339.89 738.152 1338.23 738.696 1336.12 738.696ZM1398 801C1393.45 801 1389.9 799.784 1387.34 797.352C1384.85 794.92 1383.6 791.496 1383.6 787.08V756.072H1368.72V748.2H1383.6V733.32H1392.24V748.2H1413.36V756.072H1392.24V787.08C1392.24 791.112 1394.16 793.128 1398 793.128H1412.4V801H1398ZM1438.09 818.28L1445.86 797.736L1426.28 748.2H1435.88L1448.17 780.84C1448.62 781.928 1449.03 783.24 1449.42 784.776C1449.8 786.248 1450.12 787.496 1450.38 788.52C1450.63 787.496 1450.95 786.248 1451.34 784.776C1451.72 783.24 1452.1 781.928 1452.49 780.84L1464.01 748.2H1473.32L1447.3 818.28H1438.09Z" fill="white"/>
</svg>
