<svg width="1280" height="720" viewBox="0 0 1280 720" fill="none" xmlns="http://www.w3.org/2000/svg">
<rect width="1280" height="720" fill="#000000"/>
<circle cx="120" cy="120" r="32" fill="#111111"/>
<circle cx="200" cy="120" r="32" fill="#111111"/>
<circle cx="280" cy="120" r="32" fill="#111111"/>
<circle cx="360" cy="120" r="32" fill="#111111"/>
<circle cx="440" cy="120" r="32" fill="#111111"/>
<circle cx="520" cy="120" r="32" fill="#111111"/>
<circle cx="600" cy="120" r="32" fill="#111111"/>
<circle cx="680" cy="120" r="32" fill="#111111"/>
<circle cx="760" cy="120" r="32" fill="#111111"/>
<circle cx="840" cy="120" r="32" fill="#111111"/>
<circle cx="920" cy="120" r="32" fill="#111111"/>
<circle cx="1000" cy="120" r="32" fill="#111111"/>
<circle cx="1080" cy="120" r="32" fill="#111111"/>
<circle cx="1160" cy="120" r="32" fill="#111111"/>
<circle cx="120" cy="200" r="32" fill="#111111"/>
<circle cx="200" cy="200" r="32" fill="#111111"/>
<circle cx="280" cy="200" r="32" fill="#111111"/>
<circle cx="360" cy="200" r="32" fill="#111111"/>
<circle cx="440" cy="200" r="32" fill="#111111"/>
<circle cx="520" cy="200" r="32" fill="#111111"/>
<circle cx="600" cy="200" r="32" fill="#111111"/>
<circle cx="680" cy="200" r="32" fill="#111111"/>
<circle cx="760" cy="200" r="32" fill="#111111"/>
<circle cx="840" cy="200" r="32" fill="#111111"/>
<circle cx="920" cy="200" r="32" fill="#111111"/>
<circle cx="1000" cy="200" r="32" fill="#111111"/>
<circle cx="1080" cy="200" r="32" fill="#111111"/>
<circle cx="1160" cy="200" r="32" fill="#111111"/>
<circle cx="120" cy="280" r="32" fill="#111111"/>
<circle cx="200" cy="280" r="32" fill="#111111"/>
<circle cx="280" cy="280" r="32" fill="#111111"/>
<circle cx="360" cy="280" r="32" fill="#111111"/>
<circle cx="440" cy="280" r="32" fill="#111111"/>
<circle cx="520" cy="280" r="32" fill="#111111"/>
<circle cx="600" cy="280" r="32" fill="#111111"/>
<circle cx="680" cy="280" r="32" fill="#111111"/>
<circle cx="760" cy="280" r="32" fill="#111111"/>
<circle cx="840" cy="280" r="32" fill="#111111"/>
<circle cx="920" cy="280" r="32" fill="#111111"/>
<circle cx="1000" cy="280" r="32" fill="#111111"/>
<circle cx="1080" cy="280" r="32" fill="#111111"/>
<circle cx="1160" cy="280" r="32" fill="#111111"/>
<circle cx="120" cy="360" r="32" fill="#222222"/>
<circle cx="200" cy="360" r="32" fill="#222222"/>
<circle cx="280" cy="360" r="32" fill="#222222"/>
<circle cx="360" cy="360" r="32" fill="#222222"/>
<circle cx="440" cy="360" r="32" fill="#222222"/>
<circle cx="520" cy="360" r="32" fill="#222222"/>
<circle cx="600" cy="360" r="32" fill="#222222"/>
<circle cx="680" cy="360" r="32" fill="#222222"/>
<circle cx="760" cy="360" r="32" fill="#222222"/>
<circle cx="840" cy="360" r="32" fill="white"/>
<circle cx="920" cy="360" r="32" fill="#111111"/>
<circle cx="1000" cy="360" r="32" fill="#111111"/>
<circle cx="1080" cy="360" r="32" fill="#111111"/>
<circle cx="1160" cy="360" r="32" fill="#111111"/>
<circle cx="120" cy="440" r="32" fill="#111111"/>
<circle cx="200" cy="440" r="32" fill="#111111"/>
<circle cx="280" cy="440" r="32" fill="#111111"/>
<circle cx="360" cy="440" r="32" fill="#111111"/>
<circle cx="440" cy="440" r="32" fill="#111111"/>
<circle cx="520" cy="440" r="32" fill="#111111"/>
<circle cx="600" cy="440" r="32" fill="#111111"/>
<circle cx="680" cy="440" r="32" fill="#111111"/>
<circle cx="760" cy="440" r="32" fill="#111111"/>
<circle cx="840" cy="440" r="32" fill="#111111"/>
<circle cx="920" cy="440" r="32" fill="#111111"/>
<circle cx="1000" cy="440" r="32" fill="#111111"/>
<circle cx="1080" cy="440" r="32" fill="#111111"/>
<circle cx="1160" cy="440" r="32" fill="#111111"/>
<circle cx="120" cy="520" r="32" fill="#111111"/>
<circle cx="200" cy="520" r="32" fill="#111111"/>
<circle cx="280" cy="520" r="32" fill="#111111"/>
<circle cx="360" cy="520" r="32" fill="#111111"/>
<circle cx="440" cy="520" r="32" fill="#111111"/>
<circle cx="520" cy="520" r="32" fill="#111111"/>
<circle cx="600" cy="520" r="32" fill="#111111"/>
<circle cx="680" cy="520" r="32" fill="#111111"/>
<circle cx="760" cy="520" r="32" fill="#111111"/>
<circle cx="840" cy="520" r="32" fill="#111111"/>
<circle cx="920" cy="520" r="32" fill="#111111"/>
<circle cx="1000" cy="520" r="32" fill="#111111"/>
<circle cx="1080" cy="520" r="32" fill="#111111"/>
<circle cx="1160" cy="520" r="32" fill="#111111"/>
<circle cx="120" cy="600" r="32" fill="#111111"/>
<circle cx="200" cy="600" r="32" fill="#111111"/>
<circle cx="280" cy="600" r="32" fill="#111111"/>
<circle cx="360" cy="600" r="32" fill="#111111"/>
<circle cx="440" cy="600" r="32" fill="#111111"/>
<circle cx="520" cy="600" r="32" fill="#111111"/>
<circle cx="600" cy="600" r="32" fill="#111111"/>
<circle cx="680" cy="600" r="32" fill="#111111"/>
<circle cx="760" cy="600" r="32" fill="#111111"/>
<circle cx="840" cy="600" r="32" fill="#111111"/>
<circle cx="920" cy="600" r="32" fill="#111111"/>
<circle cx="1000" cy="600" r="32" fill="#111111"/>
<circle cx="1080" cy="600" r="32" fill="#111111"/>
<circle cx="1160" cy="600" r="32" fill="#111111"/>
</svg>
