<svg width="160" height="160" xmlns="http://www.w3.org/2000/svg" shape-rendering="crispEdges"><g transform="scale(32)"><path fill="#000001" d="M3,1h1v1h-1v-1M1,3h1v1h-1v-1"/><path fill="#010000" d="M2,1h1v1h-1v-1M3,2h1v1h-1v-1M2,3h1v1h-1v-1"/><path fill="#010001" d="M3,3h1v1h-1v-1"/><path fill="#010100" d="M1,2h1v1h-1v-1"/><path fill="#fefefe" d="M1,0h1v1h-1v-1M4,3h1v1h-1v-1"/><path fill="#fefeff" d="M4,0h1v1h-1v-1M3,4h1v1h-1v-1"/><path fill="#fefffe" d="M2,0h2v1h-2v-1"/><path fill="#fffefe" d="M1,1h1v1h-1v-1M4,1h1v1h-1v-1M0,2h1v1h-1v-1"/><path fill="#fffeff" d="M0,4h1v1h-1v-1"/><path fill="#fffffe" d="M0,0h1v2h-1v-2M2,2h1v1h-1v-1M4,2h1v1h-1v-1M1,4h2v1h-2v-1"/><path fill="#ffffff" d="M0,3h1v1h-1v-1M4,4h1v1h-1v-1"/></g></svg>