<svg width="128" height="128" viewBox="0 0 128 128" fill="none" xmlns="http://www.w3.org/2000/svg">
<rect width="128" height="128" rx="32" fill="black"/>
<path fill-rule="evenodd" clip-rule="evenodd" d="M35.5556 40.8889C39.4829 40.8889 42.6667 44.0726 42.6667 48V104.889C42.6667 108.816 39.4829 112 35.5556 112C31.6282 112 28.4445 108.816 28.4445 104.889V48C28.4445 44.0726 31.6282 40.8889 35.5556 40.8889ZM92.4445 40.8889C96.3718 40.8889 99.5556 44.0726 99.5556 48V104.889C99.5556 108.816 96.3718 112 92.4445 112C88.5171 112 85.3334 108.816 85.3334 104.889V48C85.3334 44.0726 88.5171 40.8889 92.4445 40.8889Z" fill="white"/>
<path d="M78.2222 83.5556H49.7778V119.111L64 112L78.2222 119.111V83.5556Z" fill="#FF616E"/>
<path fill-rule="evenodd" clip-rule="evenodd" d="M64 33.7778C56.1453 33.7778 49.7778 40.1453 49.7778 48C49.7778 55.8547 56.1453 62.2222 64 62.2222C71.8547 62.2222 78.2222 55.8547 78.2222 48C78.2222 40.1453 71.8547 33.7778 64 33.7778ZM21.3333 48C21.3333 24.4359 40.4359 5.33333 64 5.33333C87.5642 5.33333 106.667 24.4359 106.667 48C106.667 71.5641 87.5642 90.6667 64 90.6667C40.4359 90.6667 21.3333 71.5641 21.3333 48Z" fill="black"/>
<path fill-rule="evenodd" clip-rule="evenodd" d="M64 26.6667C52.2179 26.6667 42.6667 36.2179 42.6667 48C42.6667 59.7821 52.2179 69.3333 64 69.3333C75.7821 69.3333 85.3334 59.7821 85.3334 48C85.3334 36.2179 75.7821 26.6667 64 26.6667ZM28.4445 48C28.4445 28.3632 44.3632 12.4444 64 12.4444C83.6368 12.4444 99.5556 28.3632 99.5556 48C99.5556 67.6368 83.6368 83.5556 64 83.5556C44.3632 83.5556 28.4445 67.6368 28.4445 48Z" fill="white"/>
</svg>
