<svg width="6" height="6" viewBox="0 0 6 6" fill="none" xmlns="http://www.w3.org/2000/svg">
<rect width="6" height="6" fill="white"/>
<path d="M5 5H4V4.72949C3.70554 4.90012 3.36481 5 3 5C1.89543 5 1 4.10457 1 3C1 1.89543 1.89543 1 3 1C3.36464 1 3.70563 1.09906 4 1.26953V1H5V5ZM3 2C2.44772 2 2 2.44772 2 3C2 3.55228 2.44772 4 3 4C3.55228 4 4 3.55228 4 3C4 2.44772 3.55228 2 3 2Z" fill="url(#paint0_linear_99_36)"/>
<defs>
<linearGradient id="paint0_linear_99_36" x1="3" y1="1" x2="3" y2="5" gradientUnits="userSpaceOnUse">
<stop/>
<stop offset="1" stop-opacity="0.6"/>
</linearGradient>
</defs>
</svg>
