<svg width="1920" height="1080" viewBox="0 0 1920 1080" fill="none" xmlns="http://www.w3.org/2000/svg">
<rect width="1920" height="1080" fill="black"/>
<path fill-rule="evenodd" clip-rule="evenodd" d="M924.974 186.372C936.657 185.159 948.509 184.537 960.5 184.537C972.491 184.537 984.343 185.159 996.026 186.372C1007.01 187.514 1014.99 197.346 1013.85 208.332C1012.71 219.319 1002.88 227.3 991.892 226.158C981.58 225.087 971.108 224.537 960.5 224.537C949.892 224.537 939.42 225.087 929.108 226.158C918.121 227.3 908.29 219.319 907.148 208.332C906.007 197.346 913.988 187.514 924.974 186.372ZM1072.42 223.986C1076.92 213.898 1088.75 209.366 1098.84 213.865C1120.66 223.598 1141.27 235.561 1160.37 249.461C1169.3 255.96 1171.27 268.469 1164.77 277.4C1158.27 286.331 1145.76 288.302 1136.83 281.802C1119.97 269.532 1101.79 258.979 1082.55 250.397C1072.46 245.899 1067.93 234.074 1072.42 223.986ZM848.575 223.986C853.073 234.074 848.542 245.899 838.454 250.397C819.208 258.979 801.026 269.532 784.167 281.802C775.236 288.302 762.727 286.331 756.227 277.4C749.728 268.469 751.698 255.96 760.629 249.461C779.728 235.561 800.336 223.598 822.164 213.865C832.252 209.366 844.077 213.898 848.575 223.986ZM1207.64 320.264C1216.57 313.765 1229.08 315.735 1235.58 324.666C1249.48 343.765 1261.44 364.373 1271.17 386.201C1275.67 396.289 1271.14 408.114 1261.05 412.612C1250.96 417.111 1239.14 412.579 1234.64 402.491C1226.06 383.245 1215.5 365.063 1203.23 348.204C1196.74 339.273 1198.71 326.764 1207.64 320.264ZM713.363 320.264C722.294 326.764 724.265 339.273 717.765 348.204C705.495 365.063 694.942 383.245 686.36 402.491C681.862 412.579 670.037 417.111 659.949 412.612C649.861 408.114 645.329 396.289 649.828 386.201C659.561 364.373 671.524 343.765 685.424 324.666C691.923 315.735 704.432 313.765 713.363 320.264ZM1276.7 471.185C1287.69 470.044 1297.52 478.025 1298.66 489.011C1299.88 500.694 1300.5 512.546 1300.5 524.537C1300.5 536.528 1299.88 548.38 1298.66 560.063C1297.52 571.049 1287.69 579.03 1276.7 577.889C1265.72 576.747 1257.74 566.916 1258.88 555.929C1259.95 545.617 1260.5 535.145 1260.5 524.537C1260.5 513.929 1259.95 503.457 1258.88 493.145C1257.74 482.158 1265.72 472.327 1276.7 471.185ZM644.295 471.185C655.282 472.327 663.263 482.158 662.121 493.145C661.05 503.457 660.5 513.929 660.5 524.537C660.5 535.145 661.05 545.617 662.121 555.929C663.263 566.916 655.282 576.747 644.295 577.889C633.309 579.03 623.477 571.049 622.335 560.063C621.122 548.38 620.5 536.528 620.5 524.537C620.5 512.546 621.122 500.694 622.335 489.011C623.477 478.025 633.309 470.044 644.295 471.185ZM1261.05 636.462C1271.14 640.96 1275.67 652.785 1271.17 662.873C1261.44 684.701 1249.48 705.309 1235.58 724.408C1229.08 733.339 1216.57 735.309 1207.64 728.81C1198.71 722.31 1196.74 709.801 1203.23 700.87C1215.5 684.011 1226.06 665.829 1234.64 646.583C1239.14 636.495 1250.96 631.964 1261.05 636.462ZM659.949 636.462C670.037 631.964 681.862 636.495 686.36 646.583C694.942 665.829 705.495 684.011 717.765 700.87C724.265 709.801 722.294 722.31 713.363 728.81C704.432 735.31 691.923 733.339 685.424 724.408C671.524 705.309 659.561 684.701 649.828 662.873C645.329 652.785 649.861 640.96 659.949 636.462ZM756.227 771.674C762.727 762.743 775.236 760.772 784.167 767.272C801.026 779.542 819.208 790.095 838.454 798.677C848.542 803.175 853.074 815 848.575 825.088C844.077 835.176 832.252 839.708 822.164 835.209C800.336 825.476 779.728 813.513 760.629 799.614C751.698 793.114 749.728 780.605 756.227 771.674ZM1164.77 771.674C1171.27 780.605 1169.3 793.114 1160.37 799.613C1141.27 813.513 1120.66 825.476 1098.84 835.209C1088.75 839.708 1076.92 835.176 1072.42 825.088C1067.93 815 1072.46 803.175 1082.55 798.677C1101.79 790.095 1119.97 779.542 1136.83 767.272C1145.76 760.772 1158.27 762.743 1164.77 771.674ZM907.148 840.742C908.29 829.755 918.121 821.774 929.108 822.916C939.42 823.987 949.892 824.537 960.5 824.537C971.108 824.537 981.58 823.987 991.892 822.916C1002.88 821.774 1012.71 829.755 1013.85 840.742C1014.99 851.729 1007.01 861.56 996.026 862.702C984.343 863.916 972.491 864.537 960.5 864.537C948.509 864.537 936.657 863.916 924.974 862.702C913.988 861.56 906.007 851.729 907.148 840.742Z" fill="#FFBB33"/>
<rect width="160" height="160" transform="translate(720.5 724.537)" fill="black"/>
<rect width="160" height="160" transform="translate(1040.5 724.537)" fill="black"/>
<rect width="240" height="80" transform="translate(840.5 804.537)" fill="black"/>
<path d="M1040.5 664.537H880.5C858.409 664.537 840.5 682.446 840.5 704.537V803.13C840.5 816.504 847.184 828.993 858.312 836.412L938.312 889.745C951.748 898.702 969.252 898.702 982.688 889.745L1062.69 836.412C1073.82 828.993 1080.5 816.504 1080.5 803.13V704.537C1080.5 682.446 1062.59 664.537 1040.5 664.537Z" fill="#8C8C8C"/>
<circle cx="960.5" cy="524.537" r="240" fill="#FFBB33"/>
<path fill-rule="evenodd" clip-rule="evenodd" d="M846.281 474.146C855.546 467.969 867 464.537 880.5 464.537C906.512 464.537 930.598 477.232 946.594 487.896C951.853 491.402 956.542 494.896 960.5 498.038C964.458 494.896 969.147 491.402 974.406 487.896C990.402 477.232 1014.49 464.537 1040.5 464.537C1054 464.537 1065.45 467.969 1074.72 474.146C1083.86 480.239 1089.7 488.22 1093.39 495.593C1097.04 502.887 1098.76 509.939 1099.6 514.999C1100.03 517.576 1100.25 519.768 1100.37 521.393C1100.43 522.209 1100.46 522.893 1100.48 523.422L1100.5 524.1L1100.5 524.349L1100.5 524.451L1100.5 524.496L1100.5 524.517C1100.5 524.527 1100.5 524.537 1080.5 524.537C1100.5 524.537 1100.5 524.547 1100.5 524.557L1100.5 524.578L1100.5 524.623L1100.5 524.725L1100.5 524.974L1100.48 525.653C1100.46 526.181 1100.43 526.865 1100.37 527.681C1100.25 529.306 1100.03 531.498 1099.6 534.075C1098.76 539.135 1097.04 546.187 1093.39 553.481C1089.7 560.854 1083.86 568.835 1074.72 574.928C1065.45 581.105 1054 584.537 1040.5 584.537C1014.49 584.537 990.402 571.842 974.406 561.178C969.147 557.672 964.458 554.178 960.5 551.036C956.542 554.178 951.853 557.672 946.594 561.178C930.598 571.842 906.512 584.537 880.5 584.537C867 584.537 855.546 581.105 846.281 574.928C837.141 568.835 831.298 560.854 827.611 553.481C823.964 546.187 822.24 539.135 821.397 534.075C820.968 531.498 820.745 529.306 820.629 527.681C820.571 526.865 820.538 526.181 820.521 525.653L820.504 524.974L820.501 524.725L820.5 524.623L820.5 524.578L820.5 524.557C820.5 524.547 820.5 524.537 840.5 524.537C820.5 524.537 820.5 524.527 820.5 524.517L820.5 524.496L820.5 524.451L820.501 524.349L820.504 524.1L820.521 523.422C820.538 522.893 820.571 522.209 820.629 521.393C820.745 519.768 820.968 517.576 821.397 514.999C822.24 509.939 823.964 502.887 827.611 495.593C831.298 488.22 837.141 480.239 846.281 474.146ZM860.509 524.537C860.513 524.616 860.519 524.715 860.527 524.831C860.567 525.393 860.657 526.326 860.853 527.499C861.26 529.939 862.036 532.887 863.389 535.593C864.702 538.22 866.359 540.239 868.469 541.646C870.454 542.969 874 544.537 880.5 544.537C894.488 544.537 910.402 537.232 924.406 527.896C926.092 526.772 927.709 525.646 929.249 524.537C927.709 523.428 926.092 522.302 924.406 521.178C910.402 511.842 894.488 504.537 880.5 504.537C874 504.537 870.454 506.105 868.469 507.428C866.359 508.835 864.702 510.854 863.389 513.481C862.036 516.187 861.26 519.135 860.853 521.575C860.657 522.748 860.567 523.681 860.527 524.243C860.519 524.359 860.513 524.458 860.509 524.537ZM991.751 524.537C993.291 525.646 994.908 526.772 996.594 527.896C1010.6 537.232 1026.51 544.537 1040.5 544.537C1047 544.537 1050.55 542.969 1052.53 541.646C1054.64 540.239 1056.3 538.22 1057.61 535.593C1058.96 532.887 1059.74 529.939 1060.15 527.499C1060.34 526.326 1060.43 525.393 1060.47 524.831C1060.48 524.715 1060.49 524.616 1060.49 524.537C1060.49 524.458 1060.48 524.359 1060.47 524.243C1060.43 523.681 1060.34 522.748 1060.15 521.575C1059.74 519.135 1058.96 516.187 1057.61 513.481C1056.3 510.854 1054.64 508.835 1052.53 507.428C1050.55 506.105 1047 504.537 1040.5 504.537C1026.51 504.537 1010.6 511.842 996.594 521.178C994.908 522.302 993.291 523.428 991.751 524.537Z" fill="white"/>
</svg>
