<svg width="392" height="136" xmlns="http://www.w3.org/2000/svg" shape-rendering="crispEdges"><path fill="#8f563b" d="m32,72h16v32h-16v-32m24,0h16v32h-16v-32"/><path fill="#000000" d="m0,0h392v136h-392v-136m32,104h72v-48h-8v-24h-56v24h-8v48m104,0h32v-56h-8v16h-24v8h-8v24h8v8m40,-32h16v24h-16v8h40v-8h-16v-32h-24v8m48,32h8v-24h8v-8h16v8h8v-8h-8v-8h-16v8h-8v-8h-8v40m48,0h8v-32h8v24h8v-24h8v32h8v-32h-8v-8h-8v8h-8v-8h-16v40m48,-8h8v8h32v-56h-8v16h-24v8h-8v24m-128,-40h8v-8h-8v8m-56,16h24v24h-24v-24m192,0h24v24h-24v-24"/><path fill="#ffffff" d="m40,32h56v24h-24v16h-32v-40m8,16h24v-8h-24v8m0,16h16v-8h-16v8m32,-16h8v-8h-8v8m80,0h8v56h-32v-8h24v-24h-24v-8h24v-16m32,0h8v8h-8v-8m160,0h8v56h-32v-8h24v-24h-24v-8h24v-16m-176,16h24v32h16v8h-40v-8h16v-24h-16v-8m48,0h8v8h8v8h-8v24h-8v-40m16,0h16v8h-16v-8m32,0h16v8h-8v32h-8v-40m24,0h8v8h-8v-8m-168,8h8v24h-8v-24m128,0h8v8h-8v-8m32,0h8v24h-8v-24m16,0h8v32h-8v-32m16,0h8v24h-8v-24"/><path fill="#847e87" d="m48,40h24v8h-24v-8m32,0h8v8h-8v-8m-32,16h16v8h-16v-8"/><path fill="#663931" d="m32,56h8v16h-8v-16"/><path fill="#d9a066" d="m72,56h16v48h-16v-48m24,0h8v48h-8v-48m-48,16h8v32h-8v-32"/><path fill="#eec39a" d="m88,56h8v48h-8v-48"/></svg>
